<svg width="48" height="39" viewBox="0 0 48 39" fill="none" xmlns="http://www.w3.org/2000/svg">
<path d="M16.2601 38.5998C15.3001 38.5998 14.4601 38.2398 13.7401 37.5198C13.0201 36.7998 12.6601 35.9598 12.6601 34.9998V28.9998H20.1001V21.3798C18.5801 21.4998 17.0601 21.2898 15.5401 20.7498C14.0201 20.2098 12.6601 19.3598 11.4601 18.1998V14.7198H8.4601L0.600098 6.85977C2.0401 5.49977 3.7601 4.38977 5.7601 3.52977C7.7601 2.66977 9.8001 2.23977 11.8801 2.23977C13.0801 2.23977 14.4501 2.42977 15.9901 2.80977C17.5301 3.18977 18.9001 3.79977 20.1001 4.63977V0.199768H47.4001V32.2998C47.4001 34.0598 46.7901 35.5498 45.5701 36.7698C44.3501 37.9898 42.8601 38.5998 41.1001 38.5998H16.2601ZM23.7001 28.9998H38.4001V32.2998C38.4001 33.0998 38.6501 33.7498 39.1501 34.2498C39.6501 34.7498 40.3001 34.9998 41.1001 34.9998C41.9001 34.9998 42.5501 34.7498 43.0501 34.2498C43.5501 33.7498 43.8001 33.0998 43.8001 32.2998V3.79977H23.7001V7.21977L38.1601 21.6798V24.2598H35.5801L28.0201 16.6998L27.0001 17.8998C26.4801 18.4998 25.9601 18.9598 25.4401 19.2798C24.9201 19.5998 24.3401 19.8998 23.7001 20.1798V28.9998ZM10.0801 11.1198H15.0601V16.4598C15.7401 16.8998 16.4101 17.2298 17.0701 17.4498C17.7301 17.6698 18.4001 17.7798 19.0801 17.7798C20.0801 17.7798 21.1001 17.5098 22.1401 16.9698C23.1801 16.4298 23.9401 15.8798 24.4201 15.3198L25.4401 14.1198L21.3001 9.97977C20.0201 8.69977 18.5801 7.68977 16.9801 6.94977C15.3801 6.20977 13.6801 5.83977 11.8801 5.83977C10.8001 5.83977 9.8201 5.96977 8.9401 6.22977C8.0601 6.48977 7.1601 6.83977 6.2401 7.27977L10.0801 11.1198ZM34.8001 32.5998H16.2601V34.9998H35.6401C35.4001 34.7598 35.2001 34.4298 35.0401 34.0098C34.8801 33.5898 34.8001 33.1198 34.8001 32.5998Z" fill="#029992"/>
</svg>
