<svg width="44" height="44" viewBox="0 0 44 44" fill="none" xmlns="http://www.w3.org/2000/svg">
<path d="M40.7601 43.5398L24.9801 27.7598C23.7801 28.7998 22.3809 29.6098 20.7825 30.1898C19.1842 30.7698 17.4834 31.0598 15.6801 31.0598C11.3536 31.0598 7.69197 29.5598 4.69521 26.5598C1.69845 23.5598 0.200073 19.9398 0.200073 15.6998C0.200073 11.4598 1.70007 7.83978 4.70007 4.83978C7.70007 1.83978 11.3301 0.339783 15.5901 0.339783C19.8501 0.339783 23.4701 1.83978 26.4501 4.83978C29.4301 7.83978 30.9201 11.4628 30.9201 15.7088C30.9201 17.4228 30.6401 19.0798 30.0801 20.6798C29.5201 22.2798 28.6801 23.7798 27.5601 25.1798L43.4001 40.8998L40.7601 43.5398ZM15.6201 27.4598C18.8701 27.4598 21.6326 26.3098 23.9076 24.0098C26.1826 21.7098 27.3201 18.9398 27.3201 15.6998C27.3201 12.4598 26.1826 9.68978 23.9076 7.38978C21.6326 5.08978 18.8701 3.93978 15.6201 3.93978C12.3368 3.93978 9.54591 5.08978 7.24755 7.38978C4.94923 9.68978 3.80007 12.4598 3.80007 15.6998C3.80007 18.9398 4.94923 21.7098 7.24755 24.0098C9.54591 26.3098 12.3368 27.4598 15.6201 27.4598Z" fill="#029992"/>
</svg>
