<svg width="39" height="40" viewBox="0 0 39 40" fill="none" xmlns="http://www.w3.org/2000/svg">
<path d="M19.2001 39.1997C13.8801 39.1997 9.35006 37.3297 5.61006 33.5897C1.87006 29.8497 6.10352e-05 25.3197 6.10352e-05 19.9997C6.10352e-05 14.6797 1.87006 10.1497 5.61006 6.40974C9.35006 2.66974 13.8801 0.799744 19.2001 0.799744C22.6001 0.799744 25.5801 1.48974 28.1401 2.86974C30.7001 4.24974 32.9201 6.13974 34.8001 8.53974V0.799744H38.4001V16.0397H23.1601V12.4397H33.2401C31.7201 10.0397 29.7801 8.09974 27.4201 6.61974C25.0601 5.13974 22.3201 4.39974 19.2001 4.39974C14.8401 4.39974 11.1501 5.90974 8.13006 8.92974C5.11006 11.9497 3.60006 15.6397 3.60006 19.9997C3.60006 24.3597 5.11006 28.0497 8.13006 31.0697C11.1501 34.0897 14.8401 35.5997 19.2001 35.5997C22.5201 35.5997 25.5601 34.6497 28.3201 32.7497C31.0801 30.8497 33.0001 28.3397 34.0801 25.2197H37.8001C36.6401 29.4197 34.3401 32.7997 30.9001 35.3597C27.4601 37.9197 23.5601 39.1997 19.2001 39.1997Z" fill="#029992"/>
</svg>
