<svg width="15" height="15" viewBox="0 0 15 15" fill="none" xmlns="http://www.w3.org/2000/svg">
<path d="M13.5194 14.6075L8.25939 9.34752C7.85939 9.69419 7.393 9.96419 6.86021 10.1575C6.32742 10.3509 5.76048 10.4475 5.15939 10.4475C3.71723 10.4475 2.49669 9.94752 1.49777 8.94752C0.49885 7.94752 -0.000610352 6.74085 -0.000610352 5.32752C-0.000610352 3.91419 0.49939 2.70752 1.49939 1.70752C2.49939 0.70752 3.70939 0.20752 5.12939 0.20752C6.54939 0.20752 7.75606 0.70752 8.74939 1.70752C9.74272 2.70752 10.2394 3.91519 10.2394 5.33052C10.2394 5.90185 10.1461 6.45419 9.95939 6.98752C9.77272 7.52085 9.49272 8.02085 9.11939 8.48752L14.3994 13.7275L13.5194 14.6075ZM5.13939 9.24752C6.22272 9.24752 7.14356 8.86419 7.90189 8.09752C8.66022 7.33085 9.03939 6.40752 9.03939 5.32752C9.03939 4.24752 8.66022 3.32419 7.90189 2.55752C7.14356 1.79085 6.22272 1.40752 5.13939 1.40752C4.04495 1.40752 3.11467 1.79085 2.34855 2.55752C1.58244 3.32419 1.19939 4.24752 1.19939 5.32752C1.19939 6.40752 1.58244 7.33085 2.34855 8.09752C3.11467 8.86419 4.04495 9.24752 5.13939 9.24752Z" fill="#1B1B1B"/>
</svg>
