<svg width="22" height="22" viewBox="0 0 22 22" fill="none" xmlns="http://www.w3.org/2000/svg">
<path d="M20.6794 21.9976L12.7894 14.1076C12.1894 14.6276 11.4898 15.0326 10.6906 15.3226C9.89143 15.6126 9.04102 15.7576 8.13938 15.7576C5.97614 15.7576 4.14533 15.0076 2.64695 13.5076C1.14857 12.0076 0.399384 10.1976 0.399384 8.07758C0.399384 5.95758 1.14938 4.14758 2.64938 2.64758C4.14938 1.14758 5.96438 0.397583 8.09438 0.397583C10.2244 0.397583 12.0344 1.14758 13.5244 2.64758C15.0144 4.14758 15.7594 5.95908 15.7594 8.08208C15.7594 8.93908 15.6194 9.76758 15.3394 10.5676C15.0594 11.3676 14.6394 12.1176 14.0794 12.8176L21.9994 20.6776L20.6794 21.9976ZM8.10938 13.9576C9.73438 13.9576 11.1156 13.3826 12.2531 12.2326C13.3906 11.0826 13.9594 9.69758 13.9594 8.07758C13.9594 6.45758 13.3906 5.07258 12.2531 3.92258C11.1156 2.77258 9.73438 2.19758 8.10938 2.19758C6.46772 2.19758 5.0723 2.77258 3.92312 3.92258C2.77396 5.07258 2.19938 6.45758 2.19938 8.07758C2.19938 9.69758 2.77396 11.0826 3.92312 12.2326C5.0723 13.3826 6.46772 13.9576 8.10938 13.9576Z" fill="#029992"/>
</svg>
